<?xml version="1.0" standalone="no"?><!DOCTYPE svg PUBLIC "-//W3C//DTD SVG 1.1//EN" "http://www.w3.org/Graphics/SVG/1.1/DTD/svg11.dtd"><svg t="1584519388489" class="icon" viewBox="0 0 1025 1024" version="1.1" xmlns="http://www.w3.org/2000/svg" p-id="1985" xmlns:xlink="http://www.w3.org/1999/xlink" width="60.05859375" height="60"><defs><style type="text/css"></style></defs><path d="M511.882314 258.483172l244.87664 285.677815-20.872354 0c-52.942262 0-96.003006 43.070977-96.003006 96.018356l0 288.054046-255.999488 0L383.884105 640.179343c0-52.947379-43.065861-96.018356-95.999936-96.018356l-20.879518 0L511.882314 258.483172M511.882314 174.343923c-7.559525 0-15.127238 3.372979-20.811976 10.000228l-342.379885 399.571118c-11.433949 13.321016-6.431788 24.258637 11.19346 24.258637l128.001279 0c17.623201 0 31.99725 14.377118 31.99725 32.004413l0 320.058459c0 17.630365 14.377118 32.008507 32.001343 32.008507l320.002175 0c17.629342 0 31.995203-14.379165 31.995203-32.008507L703.881163 640.179343c0-17.628318 14.376095-32.004413 32.00646-32.004413l127.998209 0c17.621155 0 22.623315-10.937621 11.186297-24.258637l-342.378861-399.571118C527.005459 177.716902 519.44184 174.343923 511.882314 174.343923L511.882314 174.343923z" p-id="1986" fill="#bfbfbf"></path><path d="M191.88321 64.070228c0 17.693813-14.312647 32.008507-32.00032 32.008507-17.687673 0-31.999296-14.314694-31.999296-32.008507 0-17.688696 14.3106-32.004413 31.999296-32.004413C177.570563 32.065815 191.88321 46.381532 191.88321 64.070228z" p-id="1987" fill="#bfbfbf"></path><path d="M895.884105 64.070228c0 17.693813-14.311624 32.008507-32.00032 32.008507-17.693813 0-32.002367-14.314694-32.002367-32.008507 0-17.688696 14.308554-32.004413 32.002367-32.004413C881.572481 32.065815 895.884105 46.381532 895.884105 64.070228z" p-id="1988" fill="#bfbfbf"></path><path d="M159.88289 32.065815l704.001919 0 0 64.01292-704.001919 0 0-64.01292Z" p-id="1989" fill="#bfbfbf"></path></svg>